<svg width="2630" height="638" viewBox="0 0 2630 638" fill="none" xmlns="http://www.w3.org/2000/svg" aria-labelledby="origami-wordmark-title">
  <title id="origami-wordmark-title">Origami</title>
  <path d="M797.197 317.654C797.197 209.027 870.069 128.909 983.526 128.909C1096.98 128.909 1170.4 209.027 1170.4 317.654C1170.4 426.282 1100.59 508.745 983.526 508.745C866.46 508.745 797.197 426.824 797.197 317.654ZM1101.13 316.932C1101.13 247.1 1059.82 191.342 983.526 191.342C907.227 191.342 865.921 247.1 865.921 316.932C865.921 393.439 906.505 446.132 983.526 446.132C1060.55 446.132 1101.13 393.263 1101.13 316.932Z" fill="black"/>
  <path d="M1198.9 500.805V215.522H1264.37V308.992H1265.63C1278.44 235.01 1303.88 215.522 1346.98 215.522H1363.4V288.965H1335.44C1284.4 288.965 1264.55 306.649 1264.55 356.27V500.626H1199.08L1198.9 500.805Z" fill="black"/>
  <path d="M1383.78 177.449V128.909H1454.67V177.449H1383.78ZM1386.85 500.805V215.522H1452.32V500.805H1386.85Z" fill="black"/>
  <path d="M1476.14 533.648C1476.14 509.288 1499.76 490.519 1544.14 485.108C1516.18 481.497 1500.49 468.146 1500.49 446.851C1500.49 432.235 1513.29 417.077 1536.2 409.319L1558.03 399.576C1515.64 386.224 1492.55 355.908 1492.55 313.321C1492.55 250.887 1538 215.699 1615.02 215.699H1754.45V270.914H1717.48C1703.59 270.914 1689.52 270.914 1669.5 269.65V270.192C1704.67 276.868 1731.37 292.026 1731.37 330.28C1731.37 380.623 1689.52 406.787 1611.96 406.787C1593.74 406.787 1577.33 404.983 1562.9 400.65L1556.76 410.394C1553.16 416.531 1550.09 420.138 1550.09 425.01C1550.09 435.836 1558.03 440.168 1574.98 440.168C1608.89 440.168 1645.33 438.365 1676.89 438.365C1737.5 438.365 1763.11 465.071 1763.11 509.281C1763.11 562.69 1726.13 592.464 1618.09 591.742C1507.16 592.284 1476.14 569.369 1476.14 533.458V533.648ZM1710.8 509.288C1710.8 496.476 1702.87 485.647 1679.24 485.647H1570.11C1540.35 485.647 1527 499.541 1527 513.617C1527 535.451 1543.95 543.392 1616.83 543.392C1694.39 543.392 1710.8 532.563 1710.8 509.468V509.288ZM1551.35 316.932C1551.35 345.441 1567.77 363.668 1612.68 363.668C1657.59 363.668 1675.09 345.984 1675.09 316.932C1675.09 287.88 1654.53 269.657 1611.96 269.657C1569.39 269.657 1551.35 288.422 1551.35 316.932Z" fill="black"/>
  <path d="M1961.35 429.17H1960.08C1946.74 480.053 1912.1 506.759 1863.04 506.759C1810.19 506.759 1773.21 480.053 1773.21 425.38C1773.21 370.707 1804.78 335.518 1876.39 335.518H1961.35V323.97C1961.35 285.174 1945.65 263.883 1906.15 263.883C1870.98 263.883 1850.95 279.58 1844.28 320.902L1781.87 312.423C1790.35 248.724 1828.05 209.21 1908.68 209.21C1989.31 209.21 2026.28 250.531 2026.28 323.252V500.449H1961.35V428.811V429.17ZM1961.35 393.442V384.421H1886.13C1854.56 384.421 1837.61 395.968 1837.61 415.456C1837.61 434.944 1850.42 453.71 1887.39 453.71C1932.31 453.71 1961.35 428.268 1961.35 393.622V393.442Z" fill="black"/>
  <path d="M2133.07 500.809H2067.59V215.526H2133.07V293.84H2133.6C2146.41 233.21 2182.67 208.308 2230.65 208.308C2292.52 208.308 2319.75 244.758 2324.62 297.447H2325.17C2336.71 233.749 2369.54 208.308 2421.67 208.308C2491.47 208.308 2516.9 253.237 2516.9 315.132V500.812H2451.97V332.094C2451.97 297.447 2436.1 267.134 2391.9 267.134C2350.06 267.134 2325.17 291.494 2325.17 332.094V500.812H2259.69V332.094C2259.69 297.447 2244.54 267.134 2200.16 267.134C2158.32 267.134 2132.88 291.494 2132.88 332.094V500.812H2133.07V500.809Z" fill="black"/>
  <path d="M2559.11 177.449V128.909H2630V177.449H2559.11ZM2562.18 500.805V215.522H2627.66V500.805H2562.18Z" fill="black"/>
  <g clip-path="url(#origami-wordmark-clip)">
    <path fill-rule="evenodd" clip-rule="evenodd" d="M638 245.293V20.3558C638 9.11332 628.887 0 617.644 0H392.707C379.755 0 367.55 6.03486 359.684 16.2738L327.089 58.7856C323.011 64.1051 314.993 64.1051 310.917 58.7856L278.349 16.2772C270.45 6.03486 258.245 0 245.327 0H20.3558C9.11332 0 0 9.11332 0 20.3558V245.293C0 258.245 6.03486 270.45 16.3077 278.316L58.8195 310.911C64.139 314.989 64.139 323.007 58.8195 327.083L16.3111 359.651C6.03825 367.55 0.00339037 379.755 0.00339037 392.673V617.644C0.00339037 628.887 9.11671 638 20.3592 638H245.331C258.248 638 270.453 631.965 278.353 621.692L310.921 579.184C314.996 573.861 323.014 573.861 327.093 579.184L359.688 621.696C367.554 631.969 379.759 638.003 392.71 638.003H617.648C628.89 638.003 638.003 628.89 638.003 617.648V392.676C638.003 379.759 631.969 367.554 621.73 359.654L579.221 327.086C573.898 323.011 573.898 314.993 579.221 310.914L621.733 278.319C631.972 270.453 638.007 258.248 638.007 245.297L638 245.293ZM374.839 374.806C346.282 403.363 331.928 434.74 324.991 455.412C323.058 461.168 314.945 461.168 313.013 455.412C306.079 434.737 291.731 403.359 263.194 374.806C234.641 346.272 203.263 331.921 182.588 324.987C176.832 323.058 176.832 314.942 182.588 313.009C203.263 306.073 234.641 291.714 263.194 263.161C291.748 234.607 306.079 203.246 313.013 182.565C314.942 176.808 323.058 176.808 324.991 182.565C331.928 203.246 346.286 234.627 374.839 263.161C403.376 291.714 434.757 306.073 455.435 313.009C461.192 314.942 461.192 323.058 455.435 324.987C434.754 331.921 403.373 346.269 374.839 374.806Z" fill="black"/>
  </g>
  <defs>
    <clipPath id="origami-wordmark-clip">
      <rect width="638" height="638" fill="white"/>
    </clipPath>
  </defs>
</svg>
